<svg width="20" height="20" viewBox="0 0 20 20" fill="none" xmlns="http://www.w3.org/2000/svg">
<path fill-rule="evenodd" clip-rule="evenodd" d="M11 3.25C11 2.55964 11.5596 2 12.25 2H16.75C17.4404 2 18 2.55964 18 3.25V7.75C18 8.44036 17.4404 9 16.75 9H12.25C11.5596 9 11 8.44036 11 7.75V3.25ZM3.25 11C2.55964 11 2 11.5596 2 12.25V16.75C2 17.4404 2.55964 18 3.25 18H7.75C8.44036 18 9 17.4404 9 16.75V12.25C9 11.5596 8.44036 11 7.75 11H3.25ZM12.25 11C11.5596 11 11 11.5596 11 12.25V16.75C11 17.4404 11.5596 18 12.25 18H16.75C17.4404 18 18 17.4404 18 16.75V12.25C18 11.5596 17.4404 11 16.75 11H12.25ZM3.25 2C2.55964 2 2 2.55964 2 3.25V7.75C2 8.44036 2.55964 9 3.25 9H7.75C8.44036 9 9 8.44036 9 7.75V3.25C9 2.55964 8.44036 2 7.75 2H3.25Z" fill="#373C43"/>
</svg>
