<svg width="20" height="20" viewBox="0 0 20 20" fill="none" xmlns="http://www.w3.org/2000/svg">
<path d="M5.47773 4.57769V1.89442C5.47773 1.65721 5.57197 1.42971 5.73971 1.26197C5.90744 1.09423 6.13494 1 6.37216 1H17.1052C17.3424 1 17.5699 1.09423 17.7377 1.26197C17.9054 1.42971 17.9997 1.65721 17.9997 1.89442V14.4163C17.9997 14.6536 17.9054 14.8811 17.7377 15.0488C17.5699 15.2165 17.3424 15.3108 17.1052 15.3108H14.422L14.4218 18.1056C14.4218 18.5993 14.0193 19 13.5211 19H2.80059C2.68264 19.0007 2.56571 18.9781 2.45652 18.9335C2.34733 18.8889 2.24804 18.8231 2.16435 18.74C2.08065 18.6569 2.0142 18.558 1.96882 18.4492C1.92344 18.3403 1.90002 18.2235 1.8999 18.1056L1.90273 5.47211C1.90273 4.97839 2.30522 4.57769 2.80341 4.57769H5.47773ZM7.26658 4.57769H14.422V13.5219H16.2108V2.78885H7.26658V4.57769Z" fill="#25292E"/>
</svg>
