<svg width="20" height="20" viewBox="0 0 20 20" fill="none" xmlns="http://www.w3.org/2000/svg">
<path fill-rule="evenodd" clip-rule="evenodd" d="M14.1924 15.6062C13.0238 16.4815 11.5724 17 10 17C6.13401 17 3 13.866 3 10C3 8.42758 3.51846 6.97625 4.39376 5.80764L14.1924 15.6062ZM15.6065 14.192L5.80802 4.39347C6.97657 3.51835 8.42775 3 10 3C13.866 3 17 6.13401 17 10C17 11.5722 16.4817 13.0234 15.6065 14.192ZM5.10379 4.99729C5.06791 5.03241 5.03241 5.06791 4.99729 5.10379L5.10379 4.99729ZM19 10C19 14.9706 14.9706 19 10 19C5.02944 19 1 14.9706 1 10C1 5.02944 5.02944 1 10 1C14.9706 1 19 5.02944 19 10Z" fill="#25292E"/>
</svg>
