<svg width="20" height="20" viewBox="0 0 20 20" fill="none" xmlns="http://www.w3.org/2000/svg">
<path d="M1 3.88267C1.00165 3.64923 1.09621 3.42579 1.26326 3.26064C1.43031 3.09548 1.65644 3.00186 1.8928 3H18.1072C18.6004 3 19 3.39556 19 3.88267V16C18.9984 16.2334 18.9038 16.4569 18.7367 16.622C18.5697 16.7872 18.3436 16.8808 18.1072 16.8827H1.8928C1.65593 16.8824 1.42885 16.7893 1.26144 16.6238C1.09403 16.4583 1 16.2339 1 16L1 3.88267ZM3 13V15H17V13H3ZM3 5V11H10V5H3ZM12 5V7H17V5H12ZM12 9V11H17V9H12ZM5 7H8V9H5V7Z" fill="#25292E"/>
</svg>
