<svg width="20" height="20" viewBox="0 0 20 20" fill="none" xmlns="http://www.w3.org/2000/svg">
<path fill-rule="evenodd" clip-rule="evenodd" d="M14.8408 16.4712L16.4533 14.8587L15.8854 12.7954L16.1328 12.2045L18 11.1508V8.87046L16.1381 7.81243L15.8949 7.22255L16.4699 5.15822L14.8563 3.54686L12.7929 4.11463L12.2034 3.86741L11.1497 2H8.86941L7.81143 3.86194L7.22171 4.10516L5.15781 3.52939L3.54669 5.14057L4.11453 7.20437L3.86733 7.79397L2 8.84769V11.1274L3.86017 12.1878L4.10365 12.7782L3.5287 14.8422L5.14043 16.454L7.20413 15.8861L7.79377 16.1334L8.84747 18H11.1272L12.1867 16.1397L12.777 15.8963L14.8408 16.4712ZM10 12C11.1046 12 12 11.1046 12 10C12 8.89543 11.1046 8 10 8C8.89543 8 8 8.89543 8 10C8 11.1046 8.89543 12 10 12Z" fill="#25292E"/>
</svg>
