<svg width="20" height="20" viewBox="0 0 20 20" fill="none" xmlns="http://www.w3.org/2000/svg">
<path fill-rule="evenodd" clip-rule="evenodd" d="M3.63604 16.364C2.87987 15.6078 2.66293 14.4543 2.90007 12.9409C1.66222 12.0384 1 11.0694 1 10C1 8.93061 1.66222 7.96159 2.90007 7.05911C2.66293 5.54567 2.87987 4.39221 3.63604 3.63604C4.39221 2.87987 5.54567 2.66293 7.05911 2.90007C7.96159 1.66222 8.93061 1 10 1C11.0694 1 12.0384 1.66222 12.9409 2.90007C14.4543 2.66293 15.6078 2.87987 16.364 3.63604C17.1201 4.39221 17.3371 5.54567 17.0999 7.05911C18.3378 7.96159 19 8.93061 19 10C19 11.0694 18.3378 12.0384 17.0999 12.9409C17.3371 14.4543 17.1201 15.6078 16.364 16.364C15.6078 17.1201 14.4543 17.3371 12.9409 17.0999C12.0384 18.3378 11.0694 19 10 19C8.93061 19 7.96159 18.3378 7.05911 17.0999C5.54567 17.3371 4.39221 17.1201 3.63604 16.364ZM9.18182 10.4793L12.6942 6.96691L13.8513 8.124L9.18182 12.7934L6.14873 9.76036L7.30581 8.60328L9.18182 10.4793Z" fill="#25292E"/>
</svg>
