<svg width="20" height="20" viewBox="0 0 20 20" fill="none" xmlns="http://www.w3.org/2000/svg">
<path fill-rule="evenodd" clip-rule="evenodd" d="M14.5491 15.9634L17.2929 18.7072L18.7071 17.293L2.70711 1.29297L1.29289 2.70718L3.69107 5.10537C2.04827 6.33344 0.756795 8.02844 0 10.0001C1.57273 14.0974 5.45455 17.0001 10 17.0001C11.6265 17.0001 13.1679 16.6284 14.5491 15.9634ZM12.7569 14.1712L11.2942 12.7085C10.9026 12.8955 10.4638 13.0001 10 13.0001C8.34 13.0001 7 11.6601 7 10.0001C7 9.53628 7.1046 9.09746 7.29156 8.70587L5.82886 7.24316C5.30511 8.03366 5 8.98145 5 10.0001C5 12.7601 7.24 15.0001 10 15.0001C11.0186 15.0001 11.9664 14.695 12.7569 14.1712ZM20 10.0001C19.4893 11.3307 18.735 12.5353 17.7936 13.5554L14.9497 10.7115C14.9828 10.4791 15 10.2416 15 10.0001C15 7.24007 12.76 5.00007 10 5.00007C9.75848 5.00007 9.52093 5.01723 9.28852 5.05038L7.53132 3.29319C8.32386 3.1015 9.15034 3.00007 10 3.00007C14.5455 3.00007 18.4273 5.90274 20 10.0001Z" fill="#373C43"/>
</svg>
